<svg xmlns="http://www.w3.org/2000/svg" width="370.97" height="35" viewBox="0 0 370.97 35"><rect class="svg__rect" x="0" y="0" width="183.99" height="35" fill="#31C4F3"/><rect class="svg__rect" x="181.99" y="0" width="188.98" height="35" fill="#389AD5"/><path class="svg__text" d="M13.97 18.51L13.97 18.51L13.97 17.03Q13.97 15.19 14.65 14.27Q15.34 13.35 16.75 13.35L16.75 13.35Q18.15 13.35 18.84 14.25Q19.53 15.14 19.55 16.93L19.55 16.93L19.55 18.41Q19.55 20.25 18.86 21.18Q18.17 22.12 16.77 22.12L16.77 22.12Q15.38 22.12 14.68 21.21Q13.98 20.29 13.97 18.51ZM15.38 16.68L15.38 18.61Q15.38 19.81 15.72 20.39Q16.05 20.98 16.77 20.98L16.77 20.98Q17.45 20.98 17.78 20.44Q18.11 19.90 18.13 18.74L18.13 18.74L18.13 16.81Q18.13 15.61 17.80 15.05Q17.47 14.49 16.75 14.49L16.75 14.49Q16.06 14.49 15.73 15.02Q15.40 15.55 15.38 16.68L15.38 16.68ZM24.17 21.85Q23.95 21.63 23.95 21.29Q23.95 20.95 24.17 20.73Q24.38 20.50 24.78 20.50L24.78 20.50Q25.17 20.50 25.39 20.73Q25.61 20.95 25.61 21.29L25.61 21.29Q25.61 21.63 25.39 21.84Q25.17 22.06 24.78 22.06L24.78 22.06Q24.39 22.06 24.17 21.85ZM30.11 18.51L30.11 18.51L30.11 17.03Q30.11 15.19 30.80 14.27Q31.49 13.35 32.90 13.35L32.90 13.35Q34.30 13.35 34.99 14.25Q35.68 15.14 35.70 16.93L35.70 16.93L35.70 18.41Q35.70 20.25 35.01 21.18Q34.32 22.12 32.91 22.12L32.91 22.12Q31.53 22.12 30.83 21.21Q30.13 20.29 30.11 18.51ZM31.53 16.68L31.53 18.61Q31.53 19.81 31.87 20.39Q32.20 20.98 32.91 20.98L32.91 20.98Q33.60 20.98 33.93 20.44Q34.26 19.90 34.27 18.74L34.27 18.74L34.27 16.81Q34.27 15.61 33.95 15.05Q33.62 14.49 32.90 14.49L32.90 14.49Q32.21 14.49 31.88 15.02Q31.55 15.55 31.53 16.68L31.53 16.68ZM39.77 19.71L39.77 19.71L41.19 19.71Q41.19 20.28 41.57 20.63Q41.95 20.98 42.59 20.98L42.59 20.98Q43.25 20.98 43.63 20.63Q44.01 20.28 44.01 19.61L44.01 19.61Q44.01 18.94 43.61 18.57Q43.22 18.21 42.43 18.21L42.43 18.21L41.59 18.21L41.59 17.08L42.46 17.08Q43.12 17.08 43.50 16.74Q43.88 16.41 43.88 15.78L43.88 15.78Q43.88 15.17 43.56 14.83Q43.24 14.49 42.59 14.49L42.59 14.49Q42.01 14.49 41.64 14.83Q41.28 15.16 41.28 15.69L41.28 15.69L39.85 15.69Q39.85 15.03 40.20 14.49Q40.55 13.96 41.17 13.65Q41.80 13.35 42.57 13.35L42.57 13.35Q43.85 13.35 44.58 13.99Q45.31 14.63 45.31 15.78L45.31 15.78Q45.31 16.35 44.94 16.86Q44.57 17.37 43.99 17.62L43.99 17.62Q44.70 17.86 45.06 18.38Q45.43 18.89 45.43 19.61L45.43 19.61Q45.43 20.76 44.64 21.44Q43.85 22.12 42.57 22.12L42.57 22.12Q41.34 22.12 40.56 21.46Q39.77 20.80 39.77 19.71ZM49.74 18.13L49.74 18.13L49.74 17.46Q49.74 15.53 50.66 14.44Q51.59 13.35 53.25 13.35L53.25 13.35Q54.67 13.35 55.51 14.05Q56.35 14.76 56.52 16.08L56.52 16.08L55.06 16.08Q54.82 14.54 53.28 14.54L53.28 14.54Q52.28 14.54 51.76 15.26Q51.24 15.98 51.23 17.37L51.23 17.37L51.23 18.02Q51.23 19.40 51.81 20.17Q52.39 20.93 53.43 20.93L53.43 20.93Q54.56 20.93 55.05 20.42L55.05 20.42L55.05 18.75L53.29 18.75L53.29 17.62L56.52 17.62L56.52 20.89Q56.06 21.50 55.24 21.81Q54.42 22.12 53.38 22.12L53.38 22.12Q52.30 22.12 51.48 21.63Q50.65 21.14 50.20 20.24Q49.75 19.33 49.74 18.13ZM66.85 18.00L66.85 18.00L66.85 17.52Q66.85 16.28 67.29 15.32Q67.73 14.37 68.54 13.86Q69.34 13.35 70.39 13.35Q71.43 13.35 72.23 13.85Q73.04 14.35 73.48 15.29Q73.92 16.23 73.92 17.48L73.92 17.48L73.92 17.96Q73.92 19.21 73.49 20.16Q73.06 21.10 72.25 21.61Q71.45 22.12 70.40 22.12L70.40 22.12Q69.36 22.12 68.55 21.61Q67.74 21.10 67.29 20.17Q66.85 19.23 66.85 18.00ZM68.33 17.46L68.33 17.96Q68.33 19.36 68.88 20.13Q69.42 20.90 70.40 20.90L70.40 20.90Q71.38 20.90 71.91 20.15Q72.44 19.40 72.44 17.96L72.44 17.96L72.44 17.51Q72.44 16.09 71.91 15.34Q71.37 14.58 70.39 14.58L70.39 14.58Q69.42 14.58 68.88 15.33Q68.34 16.09 68.33 17.46L68.33 17.46ZM79.87 22L78.39 22L78.39 13.47L83.81 13.47L83.81 14.66L79.87 14.66L79.87 17.20L83.31 17.20L83.31 18.38L79.87 18.38L79.87 22ZM93.68 18.19L93.68 18.19L93.68 17.39Q93.68 16.19 94.10 15.27Q94.53 14.35 95.33 13.85Q96.13 13.35 97.18 13.35L97.18 13.35Q98.59 13.35 99.45 14.12Q100.31 14.89 100.46 16.29L100.46 16.29L98.98 16.29Q98.87 15.37 98.44 14.96Q98.01 14.55 97.18 14.55L97.18 14.55Q96.21 14.55 95.69 15.26Q95.18 15.96 95.16 17.33L95.16 17.33L95.16 18.09Q95.16 19.47 95.66 20.20Q96.15 20.92 97.11 20.92L97.11 20.92Q97.98 20.92 98.42 20.53Q98.86 20.14 98.98 19.22L98.98 19.22L100.46 19.22Q100.33 20.59 99.45 21.35Q98.57 22.12 97.11 22.12L97.11 22.12Q96.09 22.12 95.31 21.63Q94.54 21.15 94.12 20.26Q93.69 19.37 93.68 18.19ZM104.50 18.00L104.50 18.00L104.50 17.52Q104.50 16.28 104.94 15.32Q105.38 14.37 106.19 13.86Q106.99 13.35 108.04 13.35Q109.08 13.35 109.89 13.85Q110.69 14.35 111.13 15.29Q111.57 16.23 111.58 17.48L111.58 17.48L111.58 17.96Q111.58 19.21 111.14 20.16Q110.71 21.10 109.90 21.61Q109.10 22.12 108.05 22.12L108.05 22.12Q107.01 22.12 106.20 21.61Q105.39 21.10 104.95 20.17Q104.50 19.23 104.50 18.00ZM105.98 17.46L105.98 17.96Q105.98 19.36 106.53 20.13Q107.08 20.90 108.05 20.90L108.05 20.90Q109.03 20.90 109.56 20.15Q110.09 19.40 110.09 17.96L110.09 17.96L110.09 17.51Q110.09 16.09 109.56 15.34Q109.02 14.58 108.04 14.58L108.04 14.58Q107.08 14.58 106.53 15.33Q105.99 16.09 105.98 17.46L105.98 17.46ZM117.07 16.07L115.65 16.07Q115.65 15.29 116.00 14.67Q116.36 14.04 117.02 13.70Q117.68 13.35 118.54 13.35L118.54 13.35Q119.78 13.35 120.50 13.98Q121.22 14.60 121.22 15.70L121.22 15.70Q121.22 16.34 120.85 17.04Q120.49 17.74 119.67 18.63L119.67 18.63L117.59 20.86L121.55 20.86L121.55 22L115.81 22L115.81 21.02L118.65 17.92Q119.27 17.24 119.53 16.78Q119.79 16.32 119.79 15.85L119.79 15.85Q119.79 15.24 119.45 14.87Q119.11 14.49 118.53 14.49L118.53 14.49Q117.83 14.49 117.45 14.92Q117.07 15.34 117.07 16.07L117.07 16.07ZM126.11 22.73L124.99 22.73L128.35 13.47L129.47 13.47L126.11 22.73ZM135.88 22L132.82 13.47L134.45 13.47L136.59 20.14L138.76 13.47L140.39 13.47L137.32 22L135.88 22ZM145.90 22L144.42 22L144.42 13.47L145.90 13.47L145.90 22ZM156.29 22L150.71 22L150.71 13.47L156.25 13.47L156.25 14.66L152.19 14.66L152.19 17.02L155.70 17.02L155.70 18.19L152.19 18.19L152.19 20.82L156.29 20.82L156.29 22ZM161.87 22L159.90 13.47L161.37 13.47L162.69 19.88L164.32 13.47L165.56 13.47L167.18 19.89L168.49 13.47L169.96 13.47L167.99 22L166.57 22L164.95 15.77L163.29 22L161.87 22Z" fill="#1a1a1a"/><path class="svg__text" d="M198.26 22L195.53 13.60L197.98 13.60L199.67 18.96L201.45 13.60L203.63 13.60L205.32 19.01L207.09 13.60L209.36 13.60L206.63 22L204.09 22L202.48 16.89L200.80 22L198.26 22ZM220.61 22L213.87 22L213.87 13.60L220.46 13.60L220.46 15.44L216.22 15.44L216.22 16.85L219.96 16.85L219.96 18.63L216.22 18.63L216.22 20.17L220.61 20.17L220.61 22ZM229.96 22L225.42 22L225.42 13.60L229.72 13.60Q231.32 13.60 232.16 14.19Q233.00 14.79 233.00 15.79L233.00 15.79Q233.00 16.39 232.71 16.87Q232.41 17.34 231.87 17.62L231.87 17.62Q232.59 17.87 233.00 18.41Q233.41 18.94 233.41 19.70L233.41 19.70Q233.41 20.80 232.52 21.40Q231.63 22 229.96 22L229.96 22ZM227.77 18.58L227.77 20.28L229.76 20.28Q231.01 20.28 231.01 19.43L231.01 19.43Q231.01 18.58 229.76 18.58L229.76 18.58L227.77 18.58ZM227.77 15.31L227.77 16.94L229.40 16.94Q230.60 16.94 230.60 16.12L230.60 16.12Q230.60 15.31 229.40 15.31L229.40 15.31L227.77 15.31ZM237.54 21.24L237.54 21.24L238.32 19.49Q238.88 19.86 239.63 20.09Q240.37 20.32 241.09 20.32L241.09 20.32Q242.46 20.32 242.46 19.64L242.46 19.64Q242.46 19.28 242.07 19.11Q241.68 18.93 240.81 18.74L240.81 18.74Q239.87 18.53 239.23 18.30Q238.59 18.06 238.14 17.55Q237.69 17.03 237.69 16.16L237.69 16.16Q237.69 15.39 238.10 14.77Q238.52 14.15 239.36 13.79Q240.19 13.43 241.40 13.43L241.40 13.43Q242.23 13.43 243.03 13.62Q243.84 13.80 244.45 14.17L244.45 14.17L243.72 15.93Q242.52 15.28 241.39 15.28L241.39 15.28Q240.68 15.28 240.36 15.49Q240.04 15.70 240.04 16.04L240.04 16.04Q240.04 16.37 240.42 16.54Q240.80 16.71 241.65 16.89L241.65 16.89Q242.61 17.10 243.24 17.33Q243.87 17.56 244.34 18.07Q244.80 18.58 244.80 19.46L244.80 19.46Q244.80 20.21 244.38 20.83Q243.96 21.44 243.12 21.80Q242.28 22.17 241.08 22.17L241.08 22.17Q240.06 22.17 239.10 21.92Q238.14 21.67 237.54 21.24ZM251.75 22L249.38 22L249.38 13.60L251.75 13.60L251.75 22ZM258.72 15.48L256.14 15.48L256.14 13.60L263.66 13.60L263.66 15.48L261.09 15.48L261.09 22L258.72 22L258.72 15.48ZM274.78 22L268.03 22L268.03 13.60L274.62 13.60L274.62 15.44L270.39 15.44L270.39 16.85L274.12 16.85L274.12 18.63L270.39 18.63L270.39 20.17L274.78 20.17L274.78 22ZM286.13 17.80L286.13 17.80Q286.13 16.54 286.72 15.54Q287.32 14.55 288.37 13.99Q289.42 13.43 290.74 13.43L290.74 13.43Q291.90 13.43 292.82 13.84Q293.74 14.25 294.36 15.02L294.36 15.02L292.85 16.39Q292.03 15.40 290.87 15.40L290.87 15.40Q290.18 15.40 289.65 15.70Q289.11 16 288.82 16.54Q288.52 17.09 288.52 17.80L288.52 17.80Q288.52 18.51 288.82 19.05Q289.11 19.60 289.65 19.90Q290.18 20.20 290.87 20.20L290.87 20.20Q292.03 20.20 292.85 19.22L292.85 19.22L294.36 20.58Q293.75 21.35 292.82 21.76Q291.90 22.17 290.74 22.17L290.74 22.17Q289.42 22.17 288.37 21.61Q287.32 21.05 286.72 20.05Q286.13 19.06 286.13 17.80ZM300.31 22L297.88 22L301.59 13.60L303.94 13.60L307.65 22L305.19 22L304.52 20.37L300.97 20.37L300.31 22ZM302.75 15.93L301.66 18.61L303.83 18.61L302.75 15.93ZM314.19 22L311.81 22L311.81 13.60L315.65 13.60Q316.79 13.60 317.63 13.98Q318.47 14.35 318.93 15.06Q319.38 15.76 319.38 16.71L319.38 16.71Q319.38 17.62 318.96 18.30Q318.53 18.98 317.74 19.36L317.74 19.36L319.55 22L317.00 22L315.48 19.77L314.19 19.77L314.19 22ZM314.19 15.47L314.19 17.93L315.50 17.93Q316.24 17.93 316.61 17.61Q316.98 17.29 316.98 16.71L316.98 16.71Q316.98 16.12 316.61 15.79Q316.24 15.47 315.50 15.47L315.50 15.47L314.19 15.47ZM328.71 22L324.17 22L324.17 13.60L328.47 13.60Q330.08 13.60 330.92 14.19Q331.76 14.79 331.76 15.79L331.76 15.79Q331.76 16.39 331.46 16.87Q331.17 17.34 330.63 17.62L330.63 17.62Q331.35 17.87 331.76 18.41Q332.16 18.94 332.16 19.70L332.16 19.70Q332.16 20.80 331.27 21.40Q330.39 22 328.71 22L328.71 22ZM326.53 18.58L326.53 20.28L328.52 20.28Q329.77 20.28 329.77 19.43L329.77 19.43Q329.77 18.58 328.52 18.58L328.52 18.58L326.53 18.58ZM326.53 15.31L326.53 16.94L328.15 16.94Q329.36 16.94 329.36 16.12L329.36 16.12Q329.36 15.31 328.15 15.31L328.15 15.31L326.53 15.31ZM336.45 17.80L336.45 17.80Q336.45 16.55 337.05 15.55Q337.66 14.56 338.72 14.00Q339.79 13.43 341.12 13.43L341.12 13.43Q342.45 13.43 343.51 14.00Q344.57 14.56 345.18 15.55Q345.79 16.55 345.79 17.80L345.79 17.80Q345.79 19.05 345.18 20.04Q344.57 21.04 343.51 21.60Q342.45 22.17 341.12 22.17L341.12 22.17Q339.79 22.17 338.72 21.60Q337.66 21.04 337.05 20.04Q336.45 19.05 336.45 17.80ZM338.85 17.80L338.85 17.80Q338.85 18.51 339.15 19.05Q339.45 19.60 339.97 19.90Q340.48 20.20 341.12 20.20L341.12 20.20Q341.75 20.20 342.27 19.90Q342.79 19.60 343.08 19.05Q343.38 18.51 343.38 17.80L343.38 17.80Q343.38 17.09 343.08 16.54Q342.79 16 342.27 15.70Q341.75 15.40 341.12 15.40L341.12 15.40Q340.48 15.40 339.96 15.70Q339.45 16 339.15 16.54Q338.85 17.09 338.85 17.80ZM352.85 22L350.51 22L350.51 13.60L352.47 13.60L356.18 18.07L356.18 13.60L358.51 13.60L358.51 22L356.55 22L352.85 17.52L352.85 22Z" fill="#1a1a1a" x="194.99"/></svg>